<svg width="23" height="19" viewBox="0 0 23 19" fill="none" xmlns="http://www.w3.org/2000/svg">
<path fill-rule="evenodd" clip-rule="evenodd" d="M0 1.58333C0 1.16341 0.166815 0.76068 0.463748 0.463748C0.76068 0.166815 1.16341 0 1.58333 0H20.5833C21.0033 0 21.406 0.166815 21.7029 0.463748C21.9999 0.76068 22.1667 1.16341 22.1667 1.58333C22.1667 2.00326 21.9999 2.40599 21.7029 2.70292C21.406 2.99985 21.0033 3.16667 20.5833 3.16667H1.58333C1.16341 3.16667 0.76068 2.99985 0.463748 2.70292C0.166815 2.40599 0 2.00326 0 1.58333ZM0 9.5C0 9.08007 0.166815 8.67735 0.463748 8.38041C0.76068 8.08348 1.16341 7.91667 1.58333 7.91667H20.5833C21.0033 7.91667 21.406 8.08348 21.7029 8.38041C21.9999 8.67735 22.1667 9.08007 22.1667 9.5C22.1667 9.91993 21.9999 10.3227 21.7029 10.6196C21.406 10.9165 21.0033 11.0833 20.5833 11.0833H1.58333C1.16341 11.0833 0.76068 10.9165 0.463748 10.6196C0.166815 10.3227 0 9.91993 0 9.5ZM9.5 17.4167C9.5 16.9967 9.66681 16.594 9.96375 16.2971C10.2607 16.0001 10.6634 15.8333 11.0833 15.8333H20.5833C21.0033 15.8333 21.406 16.0001 21.7029 16.2971C21.9999 16.594 22.1667 16.9967 22.1667 17.4167C22.1667 17.8366 21.9999 18.2393 21.7029 18.5363C21.406 18.8332 21.0033 19 20.5833 19H11.0833C10.6634 19 10.2607 18.8332 9.96375 18.5363C9.66681 18.2393 9.5 17.8366 9.5 17.4167Z" fill="#05A658"/>
</svg>
