<?xml version="1.0" standalone="no"?>
<!DOCTYPE svg PUBLIC "-//W3C//DTD SVG 20010904//EN"
 "http://www.w3.org/TR/2001/REC-SVG-20010904/DTD/svg10.dtd">
<svg version="1.0" xmlns="http://www.w3.org/2000/svg"
 width="558.000000pt" height="558.000000pt" viewBox="0 0 558.000000 558.000000"
 preserveAspectRatio="xMidYMid meet">
<metadata>
Created by potrace 1.11, written by Peter Selinger 2001-2013
</metadata>
<g transform="translate(0.000000,558.000000) scale(0.100000,-0.100000)"
fill="#000000" stroke="none">
<path d="M1968 4463 c-2 -4 -4 -55 -4 -113 1 -85 4 -105 16 -108 13 -2 15 14
15 102 0 65 -4 109 -11 116 -7 7 -14 8 -16 3z"/>
<path d="M2049 4470 c-1 -3 -3 -56 -4 -117 -3 -99 -1 -113 14 -113 14 0 16 14
15 105 0 67 -5 110 -12 117 -7 7 -13 10 -13 8z"/>
<path d="M2133 4461 c-6 -3 -10 -53 -9 -116 l1 -110 25 3 c14 2 27 5 28 7 9 9
6 208 -3 213 -15 9 -31 11 -42 3z"/>
<path d="M2220 4354 c0 -108 1 -112 23 -116 44 -9 47 -2 47 115 l0 112 -35 0
-35 0 0 -111z"/>
<path d="M2355 4462 c-10 -10 -5 -222 5 -223 6 -1 22 -1 38 -2 l27 -1 0 114 0
113 -33 2 c-18 1 -34 -1 -37 -3z"/>
<path d="M2499 4453 c0 -7 -1 -57 -1 -110 -1 -95 0 -98 23 -103 13 -4 34 -4
46 -2 20 4 21 10 21 95 0 132 0 133 -48 132 -25 0 -40 -5 -41 -12z"/>
<path d="M2648 4465 c0 0 -2 -52 -3 -115 l-2 -115 -155 -235 c-169 -254 -204
-297 -318 -386 -41 -33 -77 -61 -80 -64 -18 -18 -93 -72 -113 -81 -17 -7 -34
-35 -58 -92 -19 -45 -35 -85 -37 -89 -6 -13 15 -9 30 5 7 6 22 13 33 15 38 6
60 10 60 12 0 1 10 3 23 4 27 3 74 45 65 59 -3 6 -2 7 4 4 5 -3 20 4 34 16 13
13 39 33 57 46 18 12 29 27 26 33 -4 7 -2 8 4 4 7 -4 44 17 86 48 40 31 79 56
85 56 6 0 11 5 11 12 0 6 3 9 6 5 9 -9 64 21 64 35 0 6 3 9 6 5 3 -3 55 31
115 75 96 70 108 82 97 97 -12 14 -11 15 5 2 15 -12 20 -11 37 4 11 10 17 22
14 26 -3 5 1 6 9 4 7 -3 25 5 40 19 15 14 27 22 27 19 0 -3 9 2 20 12 12 10
18 25 16 32 -3 7 0 15 6 19 7 4 8 3 4 -4 -14 -24 11 -11 52 26 57 52 129 113
182 157 25 21 58 50 74 66 17 16 33 29 37 29 3 0 6 53 5 117 l-1 118 -283 0
c-155 0 -283 0 -284 0z m316 -411 c3 -8 2 -12 -4 -9 -6 3 -10 10 -10 16 0 14
7 11 14 -7z m31 6 c3 -6 -1 -7 -9 -4 -18 7 -21 14 -7 14 6 0 13 -4 16 -10z
m-205 -140 c0 -5 -2 -10 -4 -10 -3 0 -8 5 -11 10 -3 6 -1 10 4 10 6 0 11 -4
11 -10z m-23 -45 c0 -8 -4 -12 -9 -9 -5 3 -6 10 -3 15 9 13 12 11 12 -6z
m-157 -119 c0 -2 -8 -10 -17 -17 -16 -13 -17 -12 -4 4 13 16 21 21 21 13z
m-120 -76 c0 -5 -5 -10 -11 -10 -5 0 -7 5 -4 10 3 6 8 10 11 10 2 0 4 -4 4
-10z"/>
<path d="M1909 4428 c4 -28 6 -29 9 -9 2 13 0 27 -5 32 -6 6 -7 -3 -4 -23z"/>
<path d="M1905 4370 c2 -29 10 -33 13 -5 1 14 -2 25 -6 25 -5 0 -8 -9 -7 -20z"/>
<path d="M1908 4293 c5 -59 10 -63 11 -10 1 26 -3 47 -7 47 -4 0 -6 -17 -4
-37z"/>
<path d="M2573 3279 c-76 -14 -183 -74 -313 -174 -49 -38 -121 -64 -161 -60
-64 7 -134 68 -191 164 -32 54 -38 33 -11 -45 34 -100 94 -172 176 -209 46
-20 65 -23 127 -17 13 2 56 33 135 101 11 9 49 37 85 63 160 113 190 113 367
-1 154 -99 314 -180 368 -187 120 -15 134 -14 147 9 13 25 17 121 5 134 -5 4
-53 11 -106 14 -110 6 -152 23 -320 122 -133 80 -218 103 -308 86z"/>
<path d="M324 2775 c1 -13 4 -27 8 -30 4 -5 4509 -9 4888 -5 43 0 45 1 45 30
l1 30 -2472 0 -2471 0 1 -25z"/>
<path d="M1890 2615 c-112 -18 -199 -85 -236 -181 -16 -41 -18 -79 -19 -259
l0 -210 98 -3 97 -3 0 195 c0 162 3 201 17 230 31 66 126 87 182 41 43 -37 50
-72 50 -235 0 -80 0 -164 0 -187 l1 -42 94 0 c65 0 95 3 98 12 2 7 4 104 3
217 -2 188 -4 210 -24 255 -58 131 -199 197 -361 170z"/>
<path d="M1190 2611 c-92 -30 -159 -88 -197 -168 -32 -69 -40 -125 -30 -202
17 -130 84 -208 221 -258 45 -16 325 -30 327 -16 6 43 3 146 -5 151 -6 3 -65
7 -132 7 -97 2 -127 5 -151 20 -32 19 -61 60 -50 71 3 4 98 7 209 8 l203 1 3
63 c6 137 -51 245 -163 304 -43 23 -188 35 -235 19z m192 -202 c33 -60 27 -64
-105 -64 -64 -1 -117 2 -117 6 0 17 30 77 45 89 24 20 86 28 124 15 23 -8 41
-23 53 -46z"/>
<path d="M2575 2607 c-63 -21 -97 -42 -136 -84 -89 -96 -92 -112 -93 -505 l-2
-328 98 0 98 0 0 172 0 172 28 -27 c37 -36 95 -58 152 -59 97 0 161 26 228 92
114 115 115 344 1 473 -61 70 -130 99 -242 103 -59 3 -106 -1 -132 -9z m178
-169 c71 -37 102 -141 69 -228 -35 -92 -158 -119 -229 -50 -73 71 -58 229 25
275 33 17 105 19 135 3z"/>
<path d="M3273 2606 c-89 -29 -157 -90 -196 -175 -16 -36 -21 -66 -21 -141 0
-116 21 -167 96 -235 76 -68 136 -86 311 -92 l147 -6 -1 84 -1 85 -107 -1
c-58 -1 -124 3 -146 8 -41 8 -95 51 -95 74 0 14 -4 14 253 15 l167 0 1 37 c6
165 -44 272 -154 328 -63 31 -188 41 -254 19z m168 -161 c23 -15 49 -57 49
-80 0 -20 -6 -21 -120 -21 -134 1 -133 -1 -88 73 28 47 107 61 159 28z"/>
<path d="M3933 2606 c-94 -30 -161 -94 -189 -179 -14 -41 -17 -88 -16 -241 0
-105 1 -199 1 -208 1 -16 13 -18 96 -18 92 0 95 1 96 23 0 12 1 102 1 200 1
165 2 180 22 210 27 40 60 57 110 57 31 0 45 -7 77 -39 l39 -39 0 -205 0 -205
98 1 97 2 2 195 c2 247 -10 299 -82 372 -60 59 -116 81 -220 85 -57 2 -105 -2
-132 -11z"/>
<path d="M422 2527 l3 -82 135 -1 c74 -1 138 -2 143 -3 23 -4 -6 -29 -115
-102 -68 -44 -134 -91 -147 -102 -28 -26 -51 -76 -51 -114 0 -44 38 -110 78
-135 35 -22 48 -23 245 -25 l207 -3 0 83 0 82 -147 0 c-101 0 -148 4 -150 11
-2 7 52 48 120 93 68 45 134 92 146 105 70 75 50 196 -42 251 -28 18 -54 20
-230 21 l-198 2 3 -81z"/>
<path d="M4556 2595 c-86 -30 -137 -101 -137 -189 0 -90 37 -152 111 -183 21
-10 75 -17 140 -18 86 -3 107 -7 117 -21 38 -53 10 -63 -178 -66 l-164 -3 0
-75 0 -75 190 0 c105 0 202 4 217 8 40 11 98 66 119 112 37 81 14 199 -47 242
-44 31 -99 43 -202 43 -89 0 -93 1 -104 25 -22 48 -2 55 163 55 l149 0 0 78 0
79 -169 0 c-109 0 -181 -4 -205 -12z"/>
<path d="M329 1598 c-1 -4 -1 -15 -1 -23 0 -8 0 -18 1 -23 0 -4 1111 -7 2469
-7 l2467 0 0 30 0 30 -2467 1 c-1358 0 -2469 -3 -2469 -8z"/>
<path d="M2321 1361 c-8 -5 -19 -7 -26 -5 -18 7 -61 -12 -84 -37 -12 -13 -22
-20 -22 -16 -1 4 -3 12 -4 17 -1 6 -3 14 -4 19 0 5 -10 13 -22 16 -23 8 -102
-23 -94 -36 9 -13 -31 -20 -59 -9 -98 37 -187 -37 -155 -129 11 -32 56 -54 80
-41 8 5 21 5 29 0 7 -4 23 -4 36 0 12 5 24 6 27 3 3 -3 30 -4 59 -4 67 2 80 2
148 2 30 0 65 -1 77 -1 12 0 26 -1 30 -2 4 -1 17 1 29 5 12 4 32 3 45 -1 13
-5 37 -5 55 0 19 5 42 4 57 -1 18 -7 30 -6 43 4 15 11 23 11 44 0 14 -7 36
-10 50 -7 14 3 39 5 55 4 17 -1 51 -2 76 -3 49 -2 111 27 88 42 -8 5 -10 21
-5 50 14 86 13 100 -1 114 -8 8 -18 15 -23 15 -20 0 -66 -23 -84 -42 -13 -14
-24 -18 -40 -12 -11 4 -43 8 -71 8 -27 0 -56 6 -63 13 -16 15 -46 17 -70 4 -9
-5 -41 -11 -70 -13 -41 -4 -52 -2 -48 8 12 31 -49 57 -83 35z m53 -42 c-3 -5
-14 -9 -25 -9 -21 0 -26 26 -6 33 15 5 39 -12 31 -24z m-221 -19 c-12 -128
-21 -152 -48 -130 -11 9 -18 10 -29 1 -7 -6 -21 -8 -30 -5 -60 23 -20 124 48
124 8 0 16 9 19 21 8 31 43 21 40 -11z m149 10 c-7 -33 -16 -97 -15 -117 1
-24 -26 -40 -38 -22 -4 7 -12 8 -20 3 -38 -24 -76 8 -64 53 10 39 22 52 61 59
19 3 31 11 28 16 -8 13 16 29 36 25 8 -2 14 -9 12 -17z m553 -17 c-4 -21 -9
-56 -11 -77 -5 -47 -19 -65 -36 -48 -7 7 -17 8 -30 1 -35 -19 -64 11 -59 61 3
22 49 60 73 60 13 0 18 5 15 14 -6 16 6 24 37 25 16 1 17 -4 11 -36z m-285 8
c0 -11 6 -22 13 -25 8 -3 7 -9 -6 -20 -12 -9 -19 -28 -19 -50 0 -40 -12 -53
-32 -37 -8 7 -12 25 -9 46 2 22 -1 35 -8 35 -7 0 -5 8 6 20 10 11 14 20 9 20
-11 1 26 30 38 30 4 0 8 -9 8 -19z m-586 -15 c22 -1 22 0 13 -85 -3 -39 -18
-49 -36 -27 -11 13 -15 13 -27 2 -32 -33 -75 13 -59 64 8 24 64 62 78 53 5 -3
19 -6 31 -7z m513 -19 c-2 -7 -15 -12 -28 -12 -32 0 -49 -12 -49 -36 0 -22 32
-39 38 -21 6 19 34 14 30 -5 -5 -27 -54 -38 -83 -19 -47 31 -25 100 38 117 26
7 60 -8 54 -24z m213 -6 c0 -16 -21 -31 -63 -45 -10 -3 -15 -10 -12 -16 8 -13
35 -13 35 0 0 6 7 10 15 10 24 0 17 -30 -9 -40 -64 -24 -103 21 -74 85 21 46
108 51 108 6z m-346 -3 c-4 -18 -7 -45 -7 -60 1 -28 -16 -41 -35 -29 -7 4 -9
27 -5 64 5 52 8 57 30 57 23 0 24 -3 17 -32z"/>
<path d="M2064 1244 c-15 -22 -15 -27 -3 -39 19 -19 35 -7 42 33 8 40 -14 44
-39 6z"/>
<path d="M2216 1254 c-18 -17 -20 -32 -7 -53 14 -22 41 5 41 40 0 32 -11 37
-34 13z"/>
<path d="M2764 1244 c-15 -22 -15 -27 -3 -39 19 -20 39 -5 44 33 5 40 -17 43
-41 6z"/>
<path d="M1918 1245 c-9 -19 -9 -28 0 -37 16 -16 37 4 40 36 2 34 -25 35 -40
1z"/>
<path d="M2646 1254 c-9 -24 -8 -26 14 -14 11 6 18 15 15 21 -9 14 -22 11 -29
-7z"/>
<path d="M3267 1355 c-9 -8 -17 -20 -19 -26 -2 -7 -53 -11 -145 -12 -102 -2
-145 -6 -157 -16 -12 -10 -14 -17 -6 -25 5 -5 10 -33 10 -62 0 -34 5 -56 15
-64 18 -15 138 -14 166 1 12 6 19 6 19 0 0 -16 33 -18 60 -5 20 10 30 10 50
-1 16 -8 32 -10 47 -4 13 5 33 5 47 -1 17 -6 29 -5 42 5 13 9 23 10 31 3 14
-11 76 -14 91 -4 6 3 21 2 35 -3 17 -7 30 -6 44 4 16 12 26 12 58 1 41 -14 88
-7 112 17 7 7 15 38 18 70 7 84 -1 88 -203 84 -124 -2 -163 0 -166 10 -3 7
-17 13 -31 13 -15 0 -33 7 -41 15 -20 19 -58 19 -77 0z m60 -29 c-6 -17 -47
-20 -47 -3 0 9 6 17 13 20 18 6 38 -4 34 -17z m85 -53 c6 -7 4 -14 -7 -20 -9
-6 -17 -25 -18 -49 -3 -36 -7 -40 -36 -35 -5 0 -8 19 -6 41 3 25 1 38 -5 35
-6 -3 -10 1 -10 9 0 9 5 16 10 16 6 0 10 7 10 15 0 23 44 37 49 16 2 -9 7 -21
13 -28z m-399 4 c2 -7 4 -29 3 -50 0 -20 2 -37 5 -37 13 0 27 48 22 74 -5 23
-3 27 13 24 16 -3 19 -11 16 -51 -4 -62 13 -60 29 3 11 42 16 50 34 48 21 -3
23 -23 6 -63 -5 -11 -11 -27 -14 -36 -6 -19 -57 -32 -72 -19 -6 5 -17 5 -24 1
-17 -11 -51 -2 -52 13 0 6 -1 33 -2 59 -2 26 -1 50 1 52 7 6 30 -6 35 -18z
m207 0 c0 6 21 11 51 11 l50 0 -7 -42 c-4 -22 -7 -50 -8 -60 -1 -26 -33 -29
-39 -5 -3 11 -2 33 3 49 5 18 5 32 -1 35 -5 4 -9 1 -9 -4 0 -6 -9 -11 -20 -11
-23 0 -44 -34 -37 -60 5 -21 -13 -32 -32 -21 -9 6 -10 24 -5 62 8 59 22 78 42
52 6 -9 12 -12 12 -6z m316 -9 c7 -23 -20 -47 -53 -48 -13 0 -23 -5 -23 -10 0
-16 33 -26 38 -12 5 17 32 15 32 -2 0 -30 -54 -42 -87 -21 -44 29 -25 98 32
114 37 10 52 5 61 -21z m81 21 c11 5 23 7 27 4 13 -14 5 -33 -21 -45 -20 -9
-29 -23 -33 -46 -3 -18 -8 -33 -12 -32 -5 0 -13 0 -18 0 -6 0 -9 25 -8 60 2
43 7 60 18 63 8 1 18 -1 21 -6 4 -5 15 -5 26 2z m141 -17 c5 -16 -28 -28 -37
-14 -4 6 -12 7 -19 3 -10 -6 -5 -12 17 -20 16 -7 32 -20 35 -28 13 -34 -42
-61 -88 -43 -34 13 -34 34 -1 26 40 -10 52 5 16 20 -33 14 -39 30 -18 56 21
28 85 28 95 0z m-521 -74 c-3 -8 -6 -5 -6 6 -1 11 2 17 5 13 3 -3 4 -12 1 -19z"/>
<path d="M3477 1263 c-13 -13 -7 -32 8 -27 8 4 15 12 15 20 0 15 -12 19 -23 7z"/>
<path d="M1480 1345 c-30 -7 -62 -16 -72 -20 -36 -15 -33 -153 4 -180 15 -10
27 -11 45 -4 15 5 31 5 41 0 9 -5 26 -5 40 0 14 5 30 5 40 0 9 -5 26 -5 40 0
15 6 37 6 57 0 26 -7 42 -5 67 7 30 15 34 23 41 77 8 55 7 61 -13 77 -25 20
-56 23 -94 8 -16 -6 -27 -6 -31 0 -4 6 -19 10 -36 10 -18 0 -29 5 -29 14 0 13
-23 28 -38 25 -4 -1 -32 -7 -62 -14z m74 -52 c-2 -31 -1 -35 9 -22 16 20 41
29 57 19 19 -12 1 -125 -20 -125 -12 0 -14 11 -13 48 2 26 0 47 -4 47 -17 0
-43 -36 -43 -61 0 -15 -5 -31 -11 -35 -18 -11 -32 14 -30 53 2 21 3 52 4 68 2
32 13 45 38 45 13 0 16 -8 13 -37z m-84 2 c0 -7 6 -16 13 -19 9 -3 7 -9 -5
-19 -11 -9 -18 -28 -18 -50 0 -20 -6 -37 -14 -40 -22 -9 -34 12 -29 49 3 19 0
34 -6 34 -12 0 12 50 30 61 16 9 29 2 29 -16z m288 -38 c-2 -14 -14 -25 -34
-32 -35 -11 -46 -28 -21 -33 9 -2 17 1 17 7 0 6 7 11 15 11 8 0 15 -7 15 -15
0 -15 -27 -33 -47 -29 -7 1 -20 2 -28 3 -26 2 -40 46 -25 81 22 53 116 59 108
7z"/>
<path d="M1702 1258 c-19 -19 -14 -30 8 -18 11 6 20 15 20 20 0 14 -14 12 -28
-2z"/>
<path d="M1165 1220 c-8 -9 -15 -26 -15 -38 0 -28 37 -54 60 -42 10 5 20 7 23
3 9 -8 78 -8 104 1 29 9 38 41 20 70 -14 21 -23 23 -96 23 -62 -1 -85 -4 -96
-17z m52 -26 c7 -20 -17 -37 -34 -23 -15 13 -6 39 13 39 8 0 17 -7 21 -16z
m61 -5 c4 -21 -35 -32 -42 -12 -4 8 -3 19 0 24 9 15 38 6 42 -12z m60 0 c4
-19 -19 -31 -38 -19 -18 11 -4 42 17 38 10 -2 19 -10 21 -19z"/>
<path d="M3810 1220 c-37 -37 5 -96 54 -77 8 3 17 3 20 0 11 -11 96 -6 111 7
18 15 20 66 3 76 -7 5 -48 9 -92 10 -63 1 -83 -3 -96 -16z m56 -21 c3 -6 0
-17 -7 -25 -18 -17 -44 -2 -36 20 7 18 33 21 43 5z m60 -1 c9 -15 -27 -41 -39
-29 -13 13 -1 41 17 41 8 0 18 -5 22 -12z m57 -2 c8 -20 -20 -43 -35 -28 -14
14 -3 42 16 42 7 0 16 -6 19 -14z"/>
</g>
</svg>
